<?xml version="1.0" standalone="no"?>
<!DOCTYPE svg PUBLIC "-//W3C//DTD SVG 20010904//EN"
 "http://www.w3.org/TR/2001/REC-SVG-20010904/DTD/svg10.dtd">
<svg version="1.0" xmlns="http://www.w3.org/2000/svg"
 width="26.000000pt" height="26.000000pt" viewBox="0 0 26.000000 26.000000"
 preserveAspectRatio="xMidYMid meet">

<g transform="translate(0.000000,26.000000) scale(0.100000,-0.100000)"
fill="#f97316" stroke="none">
<path d="M38 234 c-31 -16 -44 -51 -34 -90 8 -29 103 -124 126 -124 23 0 118
92 125 123 11 42 -2 75 -36 92 -27 14 -33 14 -60 1 -25 -13 -33 -13 -57 0 -33
17 -30 17 -64 -2z m73 -20 c16 -15 20 -15 41 0 46 32 88 9 88 -49 0 -27 -10
-42 -51 -82 -27 -26 -54 -48 -59 -48 -5 0 -32 22 -60 49 -40 39 -50 55 -50 82
0 56 51 84 91 48z"/>
</g>
</svg>
